<?xml version="1.0" encoding="utf-8"?>
<!-- Designed by Vexels.com - 2016 All Rights Reserved - https://vexels.com/terms-and-conditions/  -->

<svg version="1.0" id="Capa_1" xmlns="http://www.w3.org/2000/svg" xmlns:xlink="http://www.w3.org/1999/xlink" x="0px" y="0px"
	 width="1200px" height="1200px" viewBox="0 0 1200 1200" enable-background="new 0 0 1200 1200" xml:space="preserve">
<g>
	<path fill="#CFB12D" d="M990.311,434.472c-5.807-40.429-57.248-309.836-394.146-309.836c-261.972,0-358.63,162.72-392.673,259.136
		c-3.131,5.593-2.017,12.442,2.427,14.942c1.195,0.667,7.494,3.526,13.726-7.618c32.555-92.875,124.761-248.681,376.52-248.681
		c346.592,0,376.858,296.059,377.122,299.05l0.512,5.712l5.382,1.884c1.086,0.389,107.972,40.319,102.84,178.22
		c0,215.751-131.287,257.881-141.817,260.908c-73.701-0.616-79.449-60.634-79.64-62.893V532.546
		c0-63.129,72.734-73.108,75.843-73.503l7.757-1.005v-7.816c0-70.109-144.396-290.054-347.999-290.054
		c-201.505,0-340.16,216.661-343.027,291.637l-0.404,11.109l10.926-2.032c19.187-3.548,35.083-0.982,47.218,7.633
		c17.303,12.304,22.641,34.043,23.595,38.618v234.998c0,85.586-16.424,104.275-46.721,108.83l-9.304,1.378l1.921,9.215
		c13.924,67.33,114.417,101.658,118.992,103.169l46.338,11.307l2.449-8.044c8.652-28.521,33.178-47.688,61.025-47.688
		c35.574,0,64.521,30.787,64.521,68.635c0,37.855-28.946,68.65-64.521,68.65c-13.426,0-32.562-5.023-46.016-19.136
		c-10.441-10.939-15.339-25.185-14.547-42.342l0.096-1.863l-4.253-11.092l-5.661-0.381
		c-78.554-5.338-154.983-72.315-175.212-118.001l-2.683-5.954l-6.365,0.725c-3.768,0.132-91.95,2.347-130.751-199.488
		c-32.092-167.082,71.371-206.52,75.769-208.104l1.679-0.593l1.54-1.027c3.343-3.725,2.94-9.723-0.91-13.373
		c-3.211-3.057-8.658-4.003-13.696,0.616c-20.441,9.861-112.89,64.154-81.847,225.855c37.064,192.7,116.396,212.937,143.605,213.97
		c23.485,45.715,99.518,113.617,180.837,122.511c0.081,19.973,6.796,37.481,19.54,50.833c17.339,18.153,41.785,24.628,58.876,24.628
		c45.377,0,82.293-38.771,82.293-86.43c0-47.65-36.917-86.414-82.293-86.414c-33.068,0-62.25,20.434-75.219,52.343l-29.629-7.193
		c-0.872-0.293-85.322-29.622-104.115-81.158c37.848-10.169,52.044-44.585,52.044-124.38l-0.096-236.692
		c-0.191-1.335-4.993-32.883-30.882-51.353c-13.535-9.649-30.083-13.8-49.132-12.244c13.469-72.947,137.321-263.895,324.023-263.895
		c183.777,0,319.991,193.257,329.684,265.045c-23.345,5.346-83.073,25.347-83.073,89.554l0.03,293.419
		c0.059,0.799,7.083,79.985,98.924,79.985c0.015,0,0.044,0,0.044,0l1.554-0.206c1.569-0.359,156.48-38.537,156.48-278.133
		C1104.736,494.683,1013.57,444.95,990.311,434.472z"/>
</g>
</svg>
